<svg version="1.1" id="Layer_1" xmlns="http://www.w3.org/2000/svg" xmlns:xlink="http://www.w3.org/1999/xlink" x="0px" y="0px"
	 width="100%" viewBox="0 0 496 496" enable-background="new 0 0 496 496" xml:space="preserve">
<path fill="#000000" opacity="1.000000" stroke="none" 
	d="
M241.777145,260.668610 
	C241.021729,260.044464 240.266296,259.420349 238.976547,258.354767 
	C236.025742,267.459290 235.053085,278.168976 220.958130,278.328033 
	C226.592728,270.532593 232.471466,264.007538 235.435486,254.538071 
	C224.908752,270.701050 220.227539,273.500183 209.694839,270.438599 
	C209.820816,268.576447 211.498764,268.244965 212.679947,267.500916 
	C217.207748,264.648895 221.462677,261.477875 225.096542,257.512054 
	C228.373535,253.935760 231.718201,251.072708 226.978821,245.510147 
	C223.426163,241.340408 224.795090,235.356567 226.132538,230.093948 
	C227.436951,224.961288 229.314941,220.036942 231.653015,215.284103 
	C222.875549,225.218216 220.582047,236.824524 222.786072,249.840881 
	C216.912735,244.498108 211.732437,238.819046 208.955063,231.490021 
	C207.812469,228.474884 209.638321,225.682159 211.706161,223.346756 
	C215.266342,219.325958 219.422195,216.092590 224.251953,213.622696 
	C218.643311,215.402985 213.029419,217.166946 207.427734,218.968842 
	C203.086868,220.365158 199.260162,219.590042 195.835648,216.530441 
	C191.537247,212.690063 187.164993,208.932358 182.824615,205.138962 
	C182.967133,204.677719 183.109634,204.216461 183.252151,203.755203 
	C195.416824,205.179520 207.581497,206.603836 219.746155,208.028152 
	C219.768509,207.835693 219.790863,207.643250 219.813217,207.450806 
	C209.678314,205.767471 199.546707,204.063858 189.407333,202.407883 
	C182.594513,201.295212 177.323517,198.089081 174.010880,191.814224 
	C170.691940,185.527328 167.149597,179.358368 163.487823,172.745193 
	C167.918640,171.900467 170.150269,175.249863 173.826477,176.211227 
	C178.458405,179.875519 183.006775,182.355972 188.209351,184.259277 
	C193.896500,188.739258 200.300980,191.209396 206.475342,194.123657 
	C200.473038,190.454346 194.736237,186.301437 187.814819,183.729431 
	C183.582657,180.065216 178.921173,177.795212 174.001221,175.998779 
	C172.928528,174.434341 171.309479,173.551605 169.755722,172.583038 
	C165.268646,169.785904 161.683624,166.113739 159.432510,161.313370 
	C155.549911,153.033966 152.789871,144.377411 150.807190,135.479324 
	C152.730438,134.557846 153.211288,136.035553 153.766846,136.822037 
	C166.122269,154.313354 183.319778,165.901321 201.578598,176.222961 
	C207.668732,179.665710 213.610199,183.377655 219.760941,186.705353 
	C227.013168,190.628983 231.968628,196.323837 234.549408,204.160599 
	C234.995544,205.515289 235.215485,207.145447 236.750092,207.922821 
	C241.403214,206.225769 244.774490,201.991394 244.485611,197.574173 
	C244.265488,194.208298 242.923340,191.396011 238.849930,191.176605 
	C237.698380,191.114578 236.417603,191.061844 236.026718,189.624649 
	C235.679459,188.347778 236.155731,187.035889 237.251465,186.624664 
	C242.125900,184.795303 246.615509,181.491135 252.404175,183.199844 
	C259.561005,185.312378 262.331848,188.613235 262.309875,196.093216 
	C262.298981,199.813019 262.594177,203.379089 265.011414,206.363297 
	C266.255493,206.516724 266.555603,205.644196 266.779816,204.899918 
	C269.563660,195.659485 276.085541,190.125702 284.253296,185.417526 
	C299.526550,176.613464 315.347321,168.593262 328.887024,157.022720 
	C335.242737,151.591400 341.163269,145.778885 346.048767,138.955261 
	C347.168518,137.391266 348.536926,136.005280 349.750305,134.584900 
	C350.506195,135.165359 350.996002,135.415634 350.965912,135.536331 
	C348.635010,144.890762 346.253326,154.265320 341.541840,162.756271 
	C338.291382,168.614105 332.922211,172.321228 327.137268,175.509186 
	C313.875549,182.817413 300.679504,190.244904 287.844086,198.372635 
	C296.092285,194.038788 304.392548,189.800613 312.573975,185.344147 
	C320.714172,180.910126 328.734985,176.256882 336.751770,171.731567 
	C337.265808,172.424484 337.670715,172.773132 337.608093,172.914093 
	C333.759308,181.577606 329.434906,190.001755 323.462097,197.404037 
	C320.839447,200.654373 316.766968,201.605545 312.773895,202.277618 
	C302.617920,203.987000 292.456512,205.664108 282.360229,207.936752 
	C294.311066,206.512268 306.261932,205.087784 318.212769,203.663300 
	C318.381958,204.096558 318.551117,204.529800 318.720306,204.963043 
	C313.289703,209.909943 308.268524,215.356934 301.762421,219.032730 
	C299.330139,220.406921 296.569000,219.847900 293.975952,218.964371 
	C288.636383,217.144989 283.296143,215.327454 276.934723,213.161331 
	C281.032684,216.072403 284.417542,218.195419 287.479919,220.710983 
	C293.840240,225.935593 294.494690,230.952667 289.734772,237.553665 
	C286.650238,241.831192 283.307312,245.922409 279.254456,250.056870 
	C280.784668,236.848938 278.725922,224.817673 269.538849,214.749954 
	C270.338928,216.341400 271.201233,217.905289 271.921814,219.531952 
	C272.662994,221.205093 273.323547,222.919662 273.919434,224.650543 
	C276.635925,232.541336 278.376770,240.428619 273.384125,248.140808 
	C272.222534,249.935135 273.180420,251.258423 274.188416,252.648407 
	C278.250305,258.249603 283.285950,262.794495 289.046753,266.592163 
	C290.535217,267.573395 292.435760,268.087616 293.282227,269.916046 
	C284.863983,274.810730 277.462128,270.227478 268.031342,254.607666 
	C270.806000,263.126343 275.648438,270.455811 281.794647,277.120911 
	C273.781982,280.069397 269.976959,275.853485 264.388031,258.393707 
	C262.613922,257.879395 261.810394,259.411591 260.274231,260.721680 
	C258.873901,262.171692 257.869659,263.125549 256.865387,264.079437 
	C255.709152,264.474304 254.969971,266.052307 252.968826,265.140472 
	C256.247314,257.563599 259.751862,250.070831 261.679688,242.006454 
	C263.556549,234.155228 265.125031,226.281738 264.081635,218.020004 
	C260.050415,231.098007 256.019226,244.176010 251.988007,257.253998 
	C251.484711,257.318420 250.981415,257.382843 250.478119,257.447266 
	C244.826797,244.059265 241.831604,229.724365 236.486740,215.005371 
	C237.042511,233.402771 240.558228,249.920486 249.180588,264.976593 
	C247.231644,266.389679 246.546280,265.113037 245.132477,264.132172 
	C243.661621,262.709778 242.719376,261.689209 241.777145,260.668610 
z"/>
<path fill="#000000" opacity="1.000000" stroke="none" 
	d="
M256.794128,264.384033 
	C257.869659,263.125549 258.873901,262.171692 260.073029,260.920807 
	C260.454987,261.240051 260.972168,261.994141 260.780792,262.452332 
	C256.322296,273.126953 263.539703,279.278229 269.965851,285.451263 
	C273.275787,288.630798 277.412354,290.949310 281.171417,293.662323 
	C281.724640,294.061615 282.160858,294.537415 281.850311,295.767181 
	C275.246002,296.983704 268.458435,296.869263 264.002045,291.093170 
	C258.129608,283.481781 252.784195,275.227570 256.794128,264.384033 
z"/>
<path fill="#000000" opacity="1.000000" stroke="none" 
	d="
M241.576736,260.990662 
	C242.719376,261.689209 243.661621,262.709778 244.896118,263.924255 
	C248.482101,275.189484 243.535660,284.026306 236.913834,291.968018 
	C232.510803,297.248688 226.007217,296.587738 219.557098,295.825500 
	C219.868820,293.083588 222.108887,292.658356 223.636002,291.681335 
	C228.575775,288.520935 233.040527,284.839691 236.838974,280.360565 
	C241.093338,275.343811 244.418518,270.123291 241.069946,263.205170 
	C240.841949,262.734131 241.259171,261.950775 241.576736,260.990662 
z"/>
<path fill="#000000" opacity="1.000000" stroke="none" 
	d="
M235.279724,297.263367 
	C240.816284,290.746857 243.550278,282.997009 247.894150,276.045532 
	C249.292999,283.983673 247.653442,291.360413 243.310150,297.934174 
	C240.745697,301.815643 236.828018,304.013794 231.746384,302.893677 
	C231.319992,299.973785 233.882538,299.192749 235.279724,297.263367 
z"/>
<path fill="#000000" opacity="1.000000" stroke="none" 
	d="
M314.802734,333.121918 
	C312.125153,335.267975 311.339203,332.857361 310.142822,331.426575 
	C308.063690,328.940002 306.211365,327.898285 305.112488,332.143158 
	C304.841614,333.189545 304.361450,334.033081 303.156921,334.017090 
	C301.644257,333.997070 301.143677,332.819153 301.128021,331.647766 
	C301.072662,327.503723 300.284668,323.091217 301.431885,319.279327 
	C302.891510,314.429352 307.642181,316.772858 310.867554,317.232544 
	C314.852509,317.800476 316.670990,321.667938 314.841827,325.790314 
	C313.694397,328.376129 313.576538,330.425690 314.802734,333.121918 
M311.403778,324.139557 
	C311.923676,322.133026 310.970428,320.981720 309.133118,320.522430 
	C308.036926,320.248413 306.804077,320.105316 305.917511,321.062531 
	C305.051270,321.997772 304.965759,323.343811 305.553680,324.268188 
	C307.065094,326.644470 309.073700,325.933807 311.403778,324.139557 
z"/>
<path fill="#000000" opacity="1.000000" stroke="none" 
	d="
M250.356110,283.039734 
	C253.953705,286.854156 253.581879,291.935547 254.490768,296.604370 
	C255.794312,303.300354 254.823822,306.707123 251.192978,310.803833 
	C245.426254,306.955933 245.125443,299.625702 250.356110,283.039734 
z"/>
<path fill="#000000" opacity="1.000000" stroke="none" 
	d="
M356.767120,319.508057 
	C358.088837,315.545349 359.842102,316.965179 361.548706,318.655243 
	C363.769012,320.854065 364.896545,323.994690 367.795319,325.995636 
	C369.760315,323.294006 367.382721,319.654541 369.625244,317.291443 
	C371.738342,316.977966 372.149689,318.265167 372.180420,319.665070 
	C372.264252,323.478851 372.262909,327.295441 372.228760,331.110321 
	C372.218536,332.255798 372.167877,333.542938 370.788116,333.991028 
	C369.317535,334.468628 368.235260,333.733673 367.349823,332.618774 
	C365.402832,330.167267 363.455231,327.716278 361.173187,324.843750 
	C359.811981,327.228821 360.558105,329.377380 360.286011,331.353058 
	C360.127380,332.505127 360.122406,333.864624 358.544312,333.883179 
	C356.963501,333.901794 356.790924,332.553406 356.771942,331.391876 
	C356.709625,327.577301 356.735565,323.761322 356.767120,319.508057 
z"/>
<path fill="#000000" opacity="1.000000" stroke="none" 
	d="
M265.554047,296.411377 
	C267.121307,298.676941 269.624542,299.870270 269.998413,302.592957 
	C259.376434,304.722412 250.503632,290.060333 253.610962,274.209167 
	C257.506897,282.212830 260.409241,289.756226 265.554047,296.411377 
z"/>
<path fill="#000000" opacity="1.000000" stroke="none" 
	d="
M339.893890,317.671997 
	C345.226562,321.394470 346.542572,325.729004 344.002197,330.101074 
	C341.682373,334.093597 336.160828,335.646301 331.731262,333.551727 
	C327.662292,331.627625 325.682983,326.882446 327.186493,322.656006 
	C328.886902,317.876129 333.320160,316.033386 339.893890,317.671997 
M331.866943,322.303833 
	C330.617249,323.993683 329.883026,325.742706 331.076569,327.799957 
	C332.771729,330.721832 335.361572,331.565094 338.270050,330.247955 
	C341.075928,328.977264 342.045471,326.354614 340.618866,323.597351 
	C338.728699,319.944244 335.783295,319.378784 331.866943,322.303833 
z"/>
<path fill="#000000" opacity="1.000000" stroke="none" 
	d="
M118.372253,332.126801 
	C117.104118,333.547211 116.131172,334.784882 113.944374,333.197418 
	C115.425812,328.132812 117.765205,323.264374 120.238480,318.486511 
	C121.282898,316.468903 123.404877,316.135590 124.597885,318.200897 
	C127.368820,322.997864 129.578308,328.084839 131.613434,334.539886 
	C126.616402,333.222809 123.191109,328.644257 118.372253,332.126801 
z"/>
<path fill="#000000" opacity="1.000000" stroke="none" 
	d="
M225.874329,329.472626 
	C222.696594,329.639130 223.980988,332.904480 222.290939,333.858032 
	C220.354156,334.200867 219.830307,333.038788 219.783066,331.566681 
	C219.692261,328.737244 219.559097,325.895294 219.730148,323.075897 
	C219.860046,320.934814 218.559097,317.803436 221.680939,317.082458 
	C225.397415,316.224121 229.456879,315.978973 232.524323,319.025116 
	C234.840454,321.325104 235.000458,324.351074 232.894775,326.728424 
	C230.453400,329.484741 233.475830,331.270966 233.697403,333.589081 
	C229.080811,335.739471 229.191284,329.857117 225.874329,329.472626 
M224.941345,325.576630 
	C227.287201,325.696014 230.177979,326.126831 230.078506,322.703003 
	C230.015656,320.539154 227.649292,320.053192 225.759827,320.465271 
	C222.666885,321.139832 222.842712,323.097198 224.941345,325.576630 
z"/>
<path fill="#000000" opacity="1.000000" stroke="none" 
	d="
M156.067764,319.992310 
	C156.956879,321.914276 157.486526,323.693665 156.448196,325.115814 
	C154.418793,327.895416 154.793747,330.563171 156.477905,333.303131 
	C154.143967,335.053558 153.044968,333.749115 151.876236,332.180725 
	C149.803650,329.399353 147.642471,326.907318 146.111389,332.590332 
	C145.868698,333.491150 145.197556,334.005981 144.280350,333.920654 
	C142.997192,333.801239 142.761154,332.741699 142.753510,331.737152 
	C142.721924,327.589600 142.733536,323.441193 142.784012,319.293762 
	C142.803574,317.686340 143.798553,316.883240 145.332870,316.834229 
	C149.122589,316.713196 153.064499,316.090363 156.067764,319.992310 
M146.749451,324.776001 
	C148.949448,326.228058 151.207489,326.496918 152.426025,323.822876 
	C153.278305,321.952545 151.745880,320.788116 149.924164,320.470734 
	C147.050247,319.970062 145.994965,321.345123 146.749451,324.776001 
z"/>
<path fill="#000000" opacity="1.000000" stroke="none" 
	d="
M288.271240,323.188782 
	C288.251343,326.312531 288.264709,328.974670 288.186890,331.634094 
	C288.151154,332.855896 287.821075,334.018402 286.249237,334.003510 
	C284.959473,333.991302 284.513855,333.028320 284.569092,331.982697 
	C284.722656,329.077759 284.114563,327.245514 280.535278,327.282562 
	C277.154816,327.317566 276.164032,328.895721 276.222443,331.883209 
	C276.242676,332.918823 275.843903,333.902771 274.547119,333.918213 
	C273.252533,333.933685 272.826996,332.956238 272.815613,331.925720 
	C272.767944,327.604309 272.781097,323.281464 272.844940,318.960205 
	C272.857605,318.104736 273.362854,317.323792 274.319122,317.219696 
	C275.591461,317.081177 276.176178,317.977325 276.174133,319.039368 
	C276.168243,322.105438 276.868042,323.972961 280.663879,323.923553 
	C285.200867,323.864471 284.408356,320.706604 284.850830,318.088013 
	C284.899811,317.798309 285.214203,317.553497 285.530457,317.114349 
	C289.483978,317.462006 287.741608,320.690155 288.271240,323.188782 
z"/>
<path fill="#000000" opacity="1.000000" stroke="none" 
	d="
M175.668869,323.626526 
	C177.800995,324.019867 180.213211,322.894501 180.923874,325.794617 
	C179.294556,328.899536 175.237518,325.762878 173.493683,328.855927 
	C174.778076,333.149109 181.219742,328.286865 182.339661,333.533783 
	C178.678940,334.972015 174.838821,335.115631 171.883987,333.951996 
	C167.488800,332.221161 170.000076,327.569275 169.812988,324.248413 
	C169.675568,321.808624 167.956299,317.894531 171.943924,317.065765 
	C175.175201,316.394226 178.959061,315.678589 182.242935,318.122955 
	C180.598434,321.267181 178.144867,319.988190 176.197601,320.329529 
	C175.211258,320.502441 174.066895,320.417267 173.722916,321.574097 
	C173.359238,322.797333 174.176300,323.372162 175.668869,323.626526 
z"/>
<path fill="#000000" opacity="1.000000" stroke="none" 
	d="
M455.249939,327.828430 
	C454.054260,331.248749 456.524658,330.511536 458.127563,330.743530 
	C460.029938,331.018921 462.498657,330.088593 463.553009,333.819153 
	C459.056519,334.254761 454.958618,335.480865 451.128021,333.003326 
	C449.887238,332.200867 450.607147,318.335266 451.552002,317.463715 
	C453.168701,315.972473 460.603455,316.681915 463.009399,318.645813 
	C461.141205,322.143677 456.497253,318.610382 454.540466,321.607483 
	C454.963379,324.081085 456.716705,323.550385 458.095642,323.697083 
	C459.512665,323.847931 461.121552,323.512787 461.990112,325.388306 
	C460.604919,328.474426 457.569550,326.674255 455.249939,327.828430 
z"/>
<path fill="#000000" opacity="1.000000" stroke="none" 
	d="
M200.671021,323.627899 
	C202.758850,323.864075 204.726105,323.283081 206.022324,325.172241 
	C204.755692,329.145020 200.127777,325.660797 198.524979,328.911926 
	C200.018250,332.964905 205.509796,328.593262 207.020020,332.640961 
	C204.018661,334.709991 196.392776,335.042297 195.105011,333.208313 
	C194.213272,331.938324 194.584915,318.412811 195.536285,317.512543 
	C197.198624,315.939514 204.576172,316.652954 206.920120,318.672516 
	C205.602020,321.256287 203.140091,319.975555 201.198242,320.328094 
	C200.216705,320.506287 199.066345,320.409058 198.724594,321.569977 
	C198.365448,322.790009 199.180710,323.368011 200.671021,323.627899 
z"/>
<path fill="#000000" opacity="1.000000" stroke="none" 
	d="
M251.509735,334.163818 
	C245.512985,330.909027 243.689224,326.643158 245.909607,321.936157 
	C247.911362,317.692596 253.392090,315.578430 257.735748,317.427704 
	C259.077759,317.999023 260.907288,318.569489 260.265320,320.479950 
	C259.528961,322.671204 257.856354,321.511047 256.560547,320.936279 
	C254.055603,319.825226 252.038818,320.464630 250.393173,322.515167 
	C248.999054,324.252258 248.899414,326.198303 249.939407,328.091888 
	C251.232819,330.446869 253.374557,331.005463 255.902298,330.539062 
	C257.461700,330.251343 259.817566,328.195404 260.238495,331.174591 
	C260.564880,333.484528 257.839935,333.951752 255.883011,334.227692 
	C254.585587,334.410675 253.239487,334.248535 251.509735,334.163818 
z"/>
<path fill="#000000" opacity="1.000000" stroke="none" 
	d="
M95.402733,316.911957 
	C96.956245,316.911743 98.205055,316.740448 99.239281,317.133606 
	C100.822372,317.735443 103.486328,318.019775 102.835144,320.392944 
	C102.124847,322.981476 100.151421,321.072754 98.732506,320.671295 
	C96.374191,320.004028 94.406029,320.591980 93.015785,322.568481 
	C91.770966,324.338196 91.732231,326.353638 92.714386,328.254089 
	C93.875610,330.501007 95.929413,330.827148 98.257660,330.663483 
	C99.910744,330.547272 102.596748,328.011108 102.980774,331.323120 
	C103.274185,333.853577 100.149788,334.077148 98.027008,334.273834 
	C92.916481,334.747345 88.937256,331.982391 87.949760,327.398651 
	C86.966080,322.832642 89.289192,319.405060 95.402733,316.911957 
z"/>
<path fill="#000000" opacity="1.000000" stroke="none" 
	d="
M415.371033,321.036621 
	C413.875610,321.886169 412.863525,321.130859 411.790253,320.757385 
	C409.264587,319.878479 407.172577,320.587219 405.590027,322.645996 
	C404.255615,324.381958 404.027954,326.257233 405.310608,328.202667 
	C406.796631,330.456421 408.882233,330.998962 411.401794,330.551880 
	C412.783264,330.306763 414.222961,329.166809 415.766357,330.965942 
	C414.603638,334.519196 411.579132,334.408783 408.658295,334.270172 
	C404.671295,334.080872 402.134949,331.771515 401.064636,328.106506 
	C399.995361,324.444946 400.972046,321.158936 404.045044,318.715393 
	C408.324493,315.312469 414.151337,316.379791 415.371033,321.036621 
z"/>
<path fill="#000000" opacity="1.000000" stroke="none" 
	d="
M434.827332,334.319580 
	C429.271332,335.124817 427.447357,332.781128 427.933228,327.871063 
	C428.209442,325.079865 428.009521,322.244629 428.161835,319.436707 
	C428.225494,318.263275 428.677612,317.046234 430.200836,317.119049 
	C431.672485,317.189392 432.010468,318.363251 432.116669,319.572113 
	C432.203491,320.559906 432.247894,321.559082 432.207855,322.549011 
	C432.032471,326.884064 431.379303,331.495087 438.022858,331.362671 
	C438.285797,331.357422 438.563690,332.105164 438.815552,332.474091 
	C438.409607,334.729309 436.620636,334.082581 434.827332,334.319580 
z"/>
<path fill="#000000" opacity="1.000000" stroke="none" 
	d="
M385.652374,317.892273 
	C388.203705,316.380768 389.032684,317.779175 389.096039,319.670502 
	C389.229004,323.637878 389.163086,327.613922 389.093903,331.584930 
	C389.072937,332.787537 388.650574,333.946747 387.141052,333.964081 
	C385.605560,333.981689 385.186096,332.742615 385.140961,331.596680 
	C384.965637,327.144958 384.511963,322.678375 385.652374,317.892273 
z"/>
</svg>